#!OML:ASF H:\BabyWalks\Project 1\Capture day 1\Session 1\baby.ASF
:FULLY-SPECIFIED
:DEGREES
989
root 42.9411 17.507 -10.937 698.263 77.0983 696.149
lowerback 17.4996 0.281409 2.09779
upperback 6.12723 1.02263 0.156189
thorax -3.21822 0.64442 -1.23327
lowerneck 0.68166 2.44226 6.64935
upperneck -11.9036 3.27295 -4.89708
head -3.84475 1.61923 -2.95605
rclavicle -1.70955e-014 1.27222e-014
rhumerus -42.7625 7.97271 -82.5443
rradius 55.7385
rwrist 1.68783
rhand -8.8594 -15.3316
rfingers 7.12502
rthumb 17.0818 -44.6007
lclavicle -1.70955e-014 1.27222e-014
lhumerus -37.1172 -5.13083 75.6201
lradius 50.1055
lwrist -0.199848
lhand -2.68146 7.27334
lfingers 7.12502
lthumb 23.0196 35.9187
rfemur 2.37202 19.8082 24.5864
rtibia 16.0836
rfoot -18.9309 3.82914
rtoes 2.85592
lfemur -22.2651 2.11776 -9.01671
ltibia 34.1473
lfoot -16.2752 -5.43501
ltoes -3.2275
990
root 42.9495 17.5071 -10.9334 698.203 77.1329 696.071
lowerback 17.4886 0.269014 2.08349
upperback 6.10818 1.00344 0.168416
thorax -3.23385 0.633935 -1.20853
lowerneck 0.675315 2.43977 6.62575
upperneck -11.9247 3.26869 -4.89545
head -3.85153 1.6181 -2.95146
rclavicle 1.78906e-015 1.98785e-015
rhumerus -42.8074 8.03699 -82.5721
rradius 55.684
rwrist 1.70065
rhand -8.80079 -15.3376
rfingers 7.12502
rthumb 17.1382 -44.6017
lclavicle 1.78906e-015 1.98785e-015
lhumerus -37.2751 -4.91627 75.5526
lradius 49.5114
lwrist -0.482718
lhand -2.39923 7.3492
lfingers 7.12502
lthumb 23.2904 35.9605
rfemur 2.40688 19.7987 24.6041
rtibia 16.0519
rfoot -18.9257 3.82078
rtoes 2.89466
lfemur -22.2698 2.11013 -9.01255
ltibia 34.1669
lfoot -16.3125 -5.45091
ltoes -3.23855
991
root 42.9576 17.5072 -10.9296 698.149 77.1681 696.003
lowerback 17.4801 0.257795 2.06314
upperback 6.09069 0.984888 0.179262
thorax -3.24916 0.623806 -1.18196
lowerneck 0.668568 2.4379 6.60715
upperneck -11.9476 3.2652 -4.89678
head -3.85874 1.61726 -2.9489
rclavicle 2.00773e-014 1.07344e-014
rhumerus -42.8506 8.09409 -82.6005
rradius 55.6231
rwrist 1.71997
rhand -8.74766 -15.3419
rfingers 7.12502
rthumb 17.1893 -44.6016
lclavicle 2.00773e-014 1.07344e-014
lhumerus -37.4418 -4.69394 75.4716
lradius 48.9705
lwrist -0.754666
lhand -2.07352 7.46697
lfingers 7.12502
lthumb 23.6029 36.0384
rfemur 2.44012 19.782 24.6191
rtibia 16.027
rfoot -18.9226 3.82184
rtoes 2.93837
lfemur -22.2716 2.10303 -9.01052
ltibia 34.1853
lfoot -16.345 -5.46924
ltoes -3.24428
992
root 42.9655 17.5072 -10.9258 698.105 77.204 695.947
lowerback 17.4791 0.248843 2.03503
upperback 6.07272 0.968233 0.189463
thorax -3.26897 0.614546 -1.15217
lowerneck 0.659711 2.4356 6.59316
upperneck -11.9682 3.26088 -4.90156
head -3.86469 1.61595 -2.94824
rclavicle 9.54166e-015 -3.18055e-015
rhumerus -42.8945 8.14265 -82.6279
rradius 55.558
rwrist 1.74262
rhand -8.70027 -15.3447
rfingers 7.12502
rthumb 17.2349 -44.6004
lclavicle 9.54166e-015 -3.18055e-015
lhumerus -37.6197 -4.46694 75.3807
lradius 48.4942
lwrist -1.00248
lhand -1.72995 7.62527
lfingers 7.12502
lthumb 23.9324 36.1538
rfemur 2.47048 19.7584 24.6306
rtibia 16.0105
rfoot -18.9202 3.83119
rtoes 2.98443
lfemur -22.2714 2.09495 -9.01118
ltibia 34.203
lfoot -16.3742 -5.48575
ltoes -3.25708
993
root 42.9729 17.5072 -10.9217 698.064 77.238 695.897
lowerback 17.4782 0.241443 2.0075
upperback 6.05875 0.953685 0.195457
thorax -3.28444 0.60655 -1.12753
lowerneck 0.646255 2.43227 6.58994
upperneck -11.9892 3.25504 -4.91012
head -3.86992 1.61357 -2.95076
rclavicle -1.07344e-014 -4.37326e-015
rhumerus -42.9302 8.17558 -82.6585
rradius 55.4854
rwrist 1.77148
rhand -8.65884 -15.3404
rfingers 7.12502
rthumb 17.2748 -44.5926
lclavicle -1.07344e-014 -4.37326e-015
lhumerus -37.7974 -4.24568 75.2763
lradius 48.0832
lwrist -1.20983
lhand -1.3706 7.83906
lfingers 7.12502
lthumb 24.2769 36.3219
rfemur 2.49405 19.7292 24.6408
rtibia 16.0038
rfoot -18.9177 3.85092
rtoes 3.03739
lfemur -22.2709 2.08873 -9.01102
ltibia 34.2208
lfoot -16.4023 -5.50282
ltoes -3.26636
994
root 42.9798 17.5072 -10.9175 697.997 77.266 695.818
lowerback 17.4822 0.235937 1.98455
upperback 6.04538 0.942606 0.202127
thorax -3.30159 0.600321 -1.10551
lowerneck 0.635843 2.42997 6.58716
upperneck -12.0135 3.25119 -4.91534
head -3.87678 1.61204 -2.95243
rclavicle 1.5704e-014 -1.90833e-014
rhumerus -42.9628 8.19691 -82.6893
rradius 55.4105
rwrist 1.80087
rhand -8.62427 -15.3338
rfingers 7.12502
rthumb 17.3081 -44.5831
lclavicle 1.5704e-014 -1.90833e-014
lhumerus -37.978 -4.03583 75.1651
lradius 47.7388
lwrist -1.37067
lhand -0.970805 8.11912
lfingers 7.12502
lthumb 24.6602 36.5502
rfemur 2.51059 19.6976 24.6584
rtibia 16.0033
rfoot -18.9125 3.87864
rtoes 3.09826
lfemur -22.2739 2.08571 -9.00059
ltibia 34.2409
lfoot -16.4283 -5.52072
ltoes -3.27436
995
root 42.9862 17.5071 -10.9133 697.918 77.2893 695.729
lowerback 17.4919 0.2334 1.9638
upperback 6.03075 0.935917 0.208766
thorax -3.32291 0.596222 -1.08573
lowerneck 0.622623 2.42638 6.59095
upperneck -12.0311 3.24533 -4.9238
head -3.88081 1.60934 -2.95613
rclavicle -2.18663e-014 -2.26615e-014
rhumerus -42.9961 8.20436 -82.7185
rradius 55.3353
rwrist 1.83065
rhand -8.5887 -15.334
rfingers 7.12502
rthumb 17.3423 -44.5803
lclavicle -2.18663e-014 -2.26615e-014
lhumerus -38.1635 -3.83948 75.0497
lradius 47.4565
lwrist -1.49368
lhand -0.547948 8.44471
lfingers 7.12502
lthumb 25.0654 36.8198
rfemur 2.52288 19.6605 24.6786
rtibia 16.0034
rfoot -18.9037 3.91648
rtoes 3.15897
lfemur -22.2798 2.08602 -8.98482
ltibia 34.2647
lfoot -16.4535 -5.53817
ltoes -3.27459
996
root 42.9923 17.5069 -10.909 697.805 77.3084 695.604
lowerback 17.5036 0.232414 1.95269
upperback 6.01729 0.933042 0.216296
thorax -3.34376 0.594121 -1.07124
lowerneck 0.600225 2.42078 6.60458
upperneck -12.038 3.23586 -4.93919
head -3.87934 1.60468 -2.96339
rclavicle 1.0138e-014 -2.10712e-014
rhumerus -43.0277 8.19732 -82.746
rradius 55.2606
rwrist 1.85734
rhand -8.55793 -15.335
rfingers 7.12502
rthumb 17.3719 -44.5787
lclavicle 1.0138e-014 -2.10712e-014
lhumerus -38.3452 -3.66079 74.9311
lradius 47.2235
lwrist -1.58374
lhand -0.138588 8.76628
lfingers 7.12502
lthumb 25.4576 37.086
rfemur 2.53631 19.6191 24.7077
rtibia 15.9981
rfoot -18.8892 3.96169
rtoes 3.22579
lfemur -22.2883 2.08907 -8.95843
ltibia 34.2922
lfoot -16.4761 -5.55948
ltoes -3.25875
997
root 42.9983 17.5067 -10.9047 697.658 77.3245 695.445
lowerback 17.5148 0.231173 1.95025
upperback 6.00422 0.931338 0.224773
thorax -3.3638 0.59267 -1.06089
lowerneck 0.578165 2.41733 6.6167
upperneck -12.0421 3.22976 -4.94933
head -3.87675 1.60154 -2.96853
rclavicle -1.72943e-014 1.59028e-015
rhumerus -43.0601 8.18189 -82.7731
rradius 55.1901
rwrist 1.88254
rhand -8.52759 -15.3428
rfingers 7.12502
rthumb 17.4011 -44.5839
lclavicle -1.72943e-014 1.59028e-015
lhumerus -38.5238 -3.50006 74.8107
lradius 47.0319
lwrist -1.64229
lhand 0.286686 9.10702
lfingers 7.12502
lthumb 25.8649 37.368
rfemur 2.55194 19.5684 24.7438
rtibia 15.9843
rfoot -18.8708 4.01437
rtoes 3.28822
lfemur -22.299 2.09633 -8.92352
ltibia 34.3217
lfoot -16.4981 -5.58524
ltoes -3.23629
998
root 43.0045 17.5066 -10.9005 697.514 77.3419 695.289
lowerback 17.5247 0.230848 1.95142
upperback 5.99256 0.931335 0.230595
thorax -3.38145 0.592169 -1.05567
lowerneck 0.565774 2.41466 6.62317
upperneck -12.049 3.22589 -4.9506
head -3.87703 1.59941 -2.96996
rclavicle 1.96797e-014 -1.15295e-014
rhumerus -43.0942 8.15553 -82.7996
rradius 55.1224
rwrist 1.90519
rhand -8.50216 -15.355
rfingers 7.12502
rthumb 17.4256 -44.594
lclavicle 1.96797e-014 -1.15295e-014
lhumerus -38.6968 -3.36454 74.69
lradius 46.8688
lwrist -1.68692
lhand 0.725532 9.44098
lfingers 7.12502
lthumb 26.2851 37.64
rfemur 2.57747 19.5107 24.7777
rtibia 15.9591
rfoot -18.8511 4.07138
rtoes 3.34703
lfemur -22.305 2.10342 -8.89137
ltibia 34.3503
lfoot -16.5185 -5.61172
ltoes -3.21469
